<mxfile host="app.diagrams.net" modified="2022-02-10T06:49:40.734Z" agent="5.0 (Windows NT 10.0; Win64; x64) AppleWebKit/537.36 (KHTML, like Gecko) Chrome/98.0.4758.81 Safari/537.36" etag="qOyjI2EpdwokdDe5s4v0" version="16.5.2" type="github">
  <diagram id="C5RBs43oDa-KdzZeNtuy" name="Page-1">
    <mxGraphModel dx="1038" dy="547" grid="1" gridSize="10" guides="1" tooltips="1" connect="1" arrows="1" fold="1" page="1" pageScale="1" pageWidth="827" pageHeight="1169" math="0" shadow="0">
      <root>
        <mxCell id="WIyWlLk6GJQsqaUBKTNV-0" />
        <mxCell id="WIyWlLk6GJQsqaUBKTNV-1" parent="WIyWlLk6GJQsqaUBKTNV-0" />
        <mxCell id="WIyWlLk6GJQsqaUBKTNV-2" value="" style="rounded=0;html=1;jettySize=auto;orthogonalLoop=1;fontSize=11;endArrow=block;endFill=0;endSize=8;strokeWidth=1;shadow=0;labelBackgroundColor=none;edgeStyle=orthogonalEdgeStyle;" parent="WIyWlLk6GJQsqaUBKTNV-1" source="WIyWlLk6GJQsqaUBKTNV-3" target="WIyWlLk6GJQsqaUBKTNV-6" edge="1">
          <mxGeometry relative="1" as="geometry" />
        </mxCell>
        <mxCell id="WIyWlLk6GJQsqaUBKTNV-3" value="Intelijen" style="rounded=1;whiteSpace=wrap;html=1;fontSize=12;glass=0;strokeWidth=1;shadow=0;" parent="WIyWlLk6GJQsqaUBKTNV-1" vertex="1">
          <mxGeometry x="160" y="90" width="120" height="40" as="geometry" />
        </mxCell>
        <mxCell id="WIyWlLk6GJQsqaUBKTNV-4" value="Yes" style="rounded=0;html=1;jettySize=auto;orthogonalLoop=1;fontSize=11;endArrow=block;endFill=0;endSize=8;strokeWidth=1;shadow=0;labelBackgroundColor=none;edgeStyle=orthogonalEdgeStyle;" parent="WIyWlLk6GJQsqaUBKTNV-1" source="WIyWlLk6GJQsqaUBKTNV-6" target="WIyWlLk6GJQsqaUBKTNV-10" edge="1">
          <mxGeometry y="20" relative="1" as="geometry">
            <mxPoint as="offset" />
          </mxGeometry>
        </mxCell>
        <mxCell id="WIyWlLk6GJQsqaUBKTNV-5" value="No" style="edgeStyle=orthogonalEdgeStyle;rounded=0;html=1;jettySize=auto;orthogonalLoop=1;fontSize=11;endArrow=block;endFill=0;endSize=8;strokeWidth=1;shadow=0;labelBackgroundColor=none;" parent="WIyWlLk6GJQsqaUBKTNV-1" source="WIyWlLk6GJQsqaUBKTNV-6" target="WIyWlLk6GJQsqaUBKTNV-7" edge="1">
          <mxGeometry y="10" relative="1" as="geometry">
            <mxPoint as="offset" />
          </mxGeometry>
        </mxCell>
        <mxCell id="WIyWlLk6GJQsqaUBKTNV-6" value="Buat STI/STI-N" style="rhombus;whiteSpace=wrap;html=1;shadow=0;fontFamily=Helvetica;fontSize=12;align=center;strokeWidth=1;spacing=6;spacingTop=-4;" parent="WIyWlLk6GJQsqaUBKTNV-1" vertex="1">
          <mxGeometry x="170" y="170" width="100" height="80" as="geometry" />
        </mxCell>
        <mxCell id="WIyWlLk6GJQsqaUBKTNV-7" value="Selesai" style="rounded=1;whiteSpace=wrap;html=1;fontSize=12;glass=0;strokeWidth=1;shadow=0;" parent="WIyWlLk6GJQsqaUBKTNV-1" vertex="1">
          <mxGeometry x="320" y="190" width="120" height="40" as="geometry" />
        </mxCell>
        <mxCell id="fnlOzHqq1vUDck9NBwXH-1" style="edgeStyle=orthogonalEdgeStyle;rounded=0;orthogonalLoop=1;jettySize=auto;html=1;exitX=0.5;exitY=1;exitDx=0;exitDy=0;entryX=0.5;entryY=0;entryDx=0;entryDy=0;" edge="1" parent="WIyWlLk6GJQsqaUBKTNV-1" source="WIyWlLk6GJQsqaUBKTNV-10" target="WIyWlLk6GJQsqaUBKTNV-11">
          <mxGeometry relative="1" as="geometry" />
        </mxCell>
        <mxCell id="fnlOzHqq1vUDck9NBwXH-23" style="edgeStyle=orthogonalEdgeStyle;rounded=0;orthogonalLoop=1;jettySize=auto;html=1;entryX=0;entryY=0.5;entryDx=0;entryDy=0;" edge="1" parent="WIyWlLk6GJQsqaUBKTNV-1" source="WIyWlLk6GJQsqaUBKTNV-10" target="WIyWlLk6GJQsqaUBKTNV-6">
          <mxGeometry relative="1" as="geometry">
            <Array as="points">
              <mxPoint x="150" y="330" />
              <mxPoint x="150" y="210" />
            </Array>
          </mxGeometry>
        </mxCell>
        <mxCell id="WIyWlLk6GJQsqaUBKTNV-10" value="Input Data" style="rhombus;whiteSpace=wrap;html=1;shadow=0;fontFamily=Helvetica;fontSize=12;align=center;strokeWidth=1;spacing=6;spacingTop=-4;" parent="WIyWlLk6GJQsqaUBKTNV-1" vertex="1">
          <mxGeometry x="170" y="290" width="100" height="80" as="geometry" />
        </mxCell>
        <mxCell id="fnlOzHqq1vUDck9NBwXH-17" style="edgeStyle=orthogonalEdgeStyle;rounded=0;orthogonalLoop=1;jettySize=auto;html=1;exitX=0.5;exitY=1;exitDx=0;exitDy=0;entryX=0.5;entryY=0;entryDx=0;entryDy=0;" edge="1" parent="WIyWlLk6GJQsqaUBKTNV-1" source="WIyWlLk6GJQsqaUBKTNV-11" target="fnlOzHqq1vUDck9NBwXH-16">
          <mxGeometry relative="1" as="geometry" />
        </mxCell>
        <mxCell id="WIyWlLk6GJQsqaUBKTNV-11" value="Data ST &amp;amp; Petugas" style="rounded=1;whiteSpace=wrap;html=1;fontSize=12;glass=0;strokeWidth=1;shadow=0;" parent="WIyWlLk6GJQsqaUBKTNV-1" vertex="1">
          <mxGeometry x="160" y="400" width="120" height="40" as="geometry" />
        </mxCell>
        <mxCell id="fnlOzHqq1vUDck9NBwXH-3" style="edgeStyle=orthogonalEdgeStyle;rounded=0;orthogonalLoop=1;jettySize=auto;html=1;entryX=0.5;entryY=0;entryDx=0;entryDy=0;" edge="1" parent="WIyWlLk6GJQsqaUBKTNV-1" source="fnlOzHqq1vUDck9NBwXH-0" target="fnlOzHqq1vUDck9NBwXH-2">
          <mxGeometry relative="1" as="geometry" />
        </mxCell>
        <mxCell id="fnlOzHqq1vUDck9NBwXH-0" value="Start" style="ellipse;whiteSpace=wrap;html=1;aspect=fixed;" vertex="1" parent="WIyWlLk6GJQsqaUBKTNV-1">
          <mxGeometry x="30" y="10" width="80" height="80" as="geometry" />
        </mxCell>
        <mxCell id="fnlOzHqq1vUDck9NBwXH-4" style="edgeStyle=orthogonalEdgeStyle;rounded=0;orthogonalLoop=1;jettySize=auto;html=1;entryX=0;entryY=0.5;entryDx=0;entryDy=0;" edge="1" parent="WIyWlLk6GJQsqaUBKTNV-1" source="fnlOzHqq1vUDck9NBwXH-2" target="WIyWlLk6GJQsqaUBKTNV-3">
          <mxGeometry relative="1" as="geometry" />
        </mxCell>
        <mxCell id="fnlOzHqq1vUDck9NBwXH-13" style="edgeStyle=orthogonalEdgeStyle;rounded=0;orthogonalLoop=1;jettySize=auto;html=1;exitX=0.5;exitY=1;exitDx=0;exitDy=0;entryX=0.5;entryY=0;entryDx=0;entryDy=0;" edge="1" parent="WIyWlLk6GJQsqaUBKTNV-1" source="fnlOzHqq1vUDck9NBwXH-2" target="fnlOzHqq1vUDck9NBwXH-7">
          <mxGeometry relative="1" as="geometry" />
        </mxCell>
        <mxCell id="fnlOzHqq1vUDck9NBwXH-2" value="Login" style="rhombus;whiteSpace=wrap;html=1;" vertex="1" parent="WIyWlLk6GJQsqaUBKTNV-1">
          <mxGeometry x="30" y="130" width="80" height="80" as="geometry" />
        </mxCell>
        <mxCell id="fnlOzHqq1vUDck9NBwXH-5" value="Yes" style="text;html=1;strokeColor=none;fillColor=none;align=center;verticalAlign=middle;whiteSpace=wrap;rounded=0;" vertex="1" parent="WIyWlLk6GJQsqaUBKTNV-1">
          <mxGeometry x="90" y="120" width="60" height="30" as="geometry" />
        </mxCell>
        <mxCell id="fnlOzHqq1vUDck9NBwXH-7" value="Selesai" style="ellipse;whiteSpace=wrap;html=1;aspect=fixed;" vertex="1" parent="WIyWlLk6GJQsqaUBKTNV-1">
          <mxGeometry x="30" y="250" width="80" height="80" as="geometry" />
        </mxCell>
        <mxCell id="fnlOzHqq1vUDck9NBwXH-9" value="No" style="text;html=1;strokeColor=none;fillColor=none;align=center;verticalAlign=middle;whiteSpace=wrap;rounded=0;" vertex="1" parent="WIyWlLk6GJQsqaUBKTNV-1">
          <mxGeometry x="70" y="210" width="60" height="30" as="geometry" />
        </mxCell>
        <mxCell id="fnlOzHqq1vUDck9NBwXH-15" value="Yes" style="text;html=1;strokeColor=none;fillColor=none;align=center;verticalAlign=middle;whiteSpace=wrap;rounded=0;" vertex="1" parent="WIyWlLk6GJQsqaUBKTNV-1">
          <mxGeometry x="220" y="360" width="60" height="30" as="geometry" />
        </mxCell>
        <mxCell id="fnlOzHqq1vUDck9NBwXH-20" style="edgeStyle=orthogonalEdgeStyle;rounded=0;orthogonalLoop=1;jettySize=auto;html=1;" edge="1" parent="WIyWlLk6GJQsqaUBKTNV-1" source="fnlOzHqq1vUDck9NBwXH-16">
          <mxGeometry relative="1" as="geometry">
            <mxPoint x="220" y="590" as="targetPoint" />
          </mxGeometry>
        </mxCell>
        <mxCell id="fnlOzHqq1vUDck9NBwXH-25" style="edgeStyle=orthogonalEdgeStyle;rounded=0;orthogonalLoop=1;jettySize=auto;html=1;entryX=0;entryY=0.5;entryDx=0;entryDy=0;" edge="1" parent="WIyWlLk6GJQsqaUBKTNV-1" source="fnlOzHqq1vUDck9NBwXH-16" target="WIyWlLk6GJQsqaUBKTNV-10">
          <mxGeometry relative="1" as="geometry">
            <Array as="points">
              <mxPoint x="150" y="510" />
              <mxPoint x="150" y="330" />
            </Array>
          </mxGeometry>
        </mxCell>
        <mxCell id="fnlOzHqq1vUDck9NBwXH-16" value="Simpan ST" style="rhombus;whiteSpace=wrap;html=1;" vertex="1" parent="WIyWlLk6GJQsqaUBKTNV-1">
          <mxGeometry x="180" y="470" width="80" height="80" as="geometry" />
        </mxCell>
        <mxCell id="fnlOzHqq1vUDck9NBwXH-24" value="No" style="text;html=1;strokeColor=none;fillColor=none;align=center;verticalAlign=middle;whiteSpace=wrap;rounded=0;" vertex="1" parent="WIyWlLk6GJQsqaUBKTNV-1">
          <mxGeometry x="130" y="275" width="60" height="30" as="geometry" />
        </mxCell>
        <mxCell id="fnlOzHqq1vUDck9NBwXH-26" value="Yes" style="text;html=1;strokeColor=none;fillColor=none;align=center;verticalAlign=middle;whiteSpace=wrap;rounded=0;" vertex="1" parent="WIyWlLk6GJQsqaUBKTNV-1">
          <mxGeometry x="220" y="550" width="60" height="30" as="geometry" />
        </mxCell>
        <mxCell id="fnlOzHqq1vUDck9NBwXH-27" value="No" style="text;html=1;strokeColor=none;fillColor=none;align=center;verticalAlign=middle;whiteSpace=wrap;rounded=0;" vertex="1" parent="WIyWlLk6GJQsqaUBKTNV-1">
          <mxGeometry x="140" y="450" width="60" height="30" as="geometry" />
        </mxCell>
        <mxCell id="fnlOzHqq1vUDck9NBwXH-29" style="edgeStyle=orthogonalEdgeStyle;rounded=0;orthogonalLoop=1;jettySize=auto;html=1;entryX=0;entryY=0.5;entryDx=0;entryDy=0;" edge="1" parent="WIyWlLk6GJQsqaUBKTNV-1" source="fnlOzHqq1vUDck9NBwXH-28" target="fnlOzHqq1vUDck9NBwXH-30">
          <mxGeometry relative="1" as="geometry">
            <mxPoint x="480" y="33.600006103515625" as="targetPoint" />
            <Array as="points">
              <mxPoint x="460" y="610" />
              <mxPoint x="460" y="50" />
            </Array>
          </mxGeometry>
        </mxCell>
        <mxCell id="fnlOzHqq1vUDck9NBwXH-39" style="edgeStyle=orthogonalEdgeStyle;rounded=0;orthogonalLoop=1;jettySize=auto;html=1;exitX=0.5;exitY=1;exitDx=0;exitDy=0;entryX=0.5;entryY=0;entryDx=0;entryDy=0;" edge="1" parent="WIyWlLk6GJQsqaUBKTNV-1" source="fnlOzHqq1vUDck9NBwXH-28" target="fnlOzHqq1vUDck9NBwXH-38">
          <mxGeometry relative="1" as="geometry" />
        </mxCell>
        <mxCell id="fnlOzHqq1vUDck9NBwXH-28" value="Index/List ST" style="rounded=1;whiteSpace=wrap;html=1;fontSize=12;glass=0;strokeWidth=1;shadow=0;" vertex="1" parent="WIyWlLk6GJQsqaUBKTNV-1">
          <mxGeometry x="160" y="590" width="120" height="40" as="geometry" />
        </mxCell>
        <mxCell id="fnlOzHqq1vUDck9NBwXH-32" style="edgeStyle=orthogonalEdgeStyle;rounded=0;orthogonalLoop=1;jettySize=auto;html=1;exitX=1;exitY=0.5;exitDx=0;exitDy=0;entryX=0;entryY=0.5;entryDx=0;entryDy=0;" edge="1" parent="WIyWlLk6GJQsqaUBKTNV-1" source="fnlOzHqq1vUDck9NBwXH-30" target="fnlOzHqq1vUDck9NBwXH-31">
          <mxGeometry relative="1" as="geometry" />
        </mxCell>
        <mxCell id="fnlOzHqq1vUDck9NBwXH-30" value="STI/STI-N" style="ellipse;whiteSpace=wrap;html=1;aspect=fixed;" vertex="1" parent="WIyWlLk6GJQsqaUBKTNV-1">
          <mxGeometry x="500" y="10" width="80" height="80" as="geometry" />
        </mxCell>
        <mxCell id="fnlOzHqq1vUDck9NBwXH-35" style="edgeStyle=orthogonalEdgeStyle;rounded=0;orthogonalLoop=1;jettySize=auto;html=1;" edge="1" parent="WIyWlLk6GJQsqaUBKTNV-1" source="fnlOzHqq1vUDck9NBwXH-31" target="fnlOzHqq1vUDck9NBwXH-34">
          <mxGeometry relative="1" as="geometry" />
        </mxCell>
        <mxCell id="fnlOzHqq1vUDck9NBwXH-31" value="List STI/STI-N" style="rounded=1;whiteSpace=wrap;html=1;" vertex="1" parent="WIyWlLk6GJQsqaUBKTNV-1">
          <mxGeometry x="600" y="20" width="120" height="60" as="geometry" />
        </mxCell>
        <mxCell id="fnlOzHqq1vUDck9NBwXH-36" style="edgeStyle=orthogonalEdgeStyle;rounded=0;orthogonalLoop=1;jettySize=auto;html=1;entryX=1;entryY=0.5;entryDx=0;entryDy=0;" edge="1" parent="WIyWlLk6GJQsqaUBKTNV-1" source="fnlOzHqq1vUDck9NBwXH-34" target="fnlOzHqq1vUDck9NBwXH-31">
          <mxGeometry relative="1" as="geometry">
            <Array as="points">
              <mxPoint x="740" y="160" />
              <mxPoint x="740" y="50" />
            </Array>
          </mxGeometry>
        </mxCell>
        <mxCell id="fnlOzHqq1vUDck9NBwXH-40" style="edgeStyle=orthogonalEdgeStyle;rounded=0;orthogonalLoop=1;jettySize=auto;html=1;entryX=0.5;entryY=0;entryDx=0;entryDy=0;" edge="1" parent="WIyWlLk6GJQsqaUBKTNV-1" source="fnlOzHqq1vUDck9NBwXH-34" target="fnlOzHqq1vUDck9NBwXH-37">
          <mxGeometry relative="1" as="geometry" />
        </mxCell>
        <mxCell id="fnlOzHqq1vUDck9NBwXH-34" value="Rekam LPTI/LPTI-N" style="rhombus;whiteSpace=wrap;html=1;shadow=0;fontFamily=Helvetica;fontSize=12;align=center;strokeWidth=1;spacing=6;spacingTop=-4;" vertex="1" parent="WIyWlLk6GJQsqaUBKTNV-1">
          <mxGeometry x="610" y="120" width="100" height="80" as="geometry" />
        </mxCell>
        <mxCell id="fnlOzHqq1vUDck9NBwXH-41" style="edgeStyle=orthogonalEdgeStyle;rounded=0;orthogonalLoop=1;jettySize=auto;html=1;entryX=0.5;entryY=0;entryDx=0;entryDy=0;" edge="1" parent="WIyWlLk6GJQsqaUBKTNV-1" source="fnlOzHqq1vUDck9NBwXH-37" target="fnlOzHqq1vUDck9NBwXH-42">
          <mxGeometry relative="1" as="geometry">
            <mxPoint x="660" y="340" as="targetPoint" />
          </mxGeometry>
        </mxCell>
        <mxCell id="fnlOzHqq1vUDck9NBwXH-44" style="edgeStyle=orthogonalEdgeStyle;rounded=0;orthogonalLoop=1;jettySize=auto;html=1;entryX=1;entryY=0.5;entryDx=0;entryDy=0;" edge="1" parent="WIyWlLk6GJQsqaUBKTNV-1" source="fnlOzHqq1vUDck9NBwXH-37" target="fnlOzHqq1vUDck9NBwXH-34">
          <mxGeometry relative="1" as="geometry">
            <Array as="points">
              <mxPoint x="740" y="270" />
              <mxPoint x="740" y="160" />
            </Array>
          </mxGeometry>
        </mxCell>
        <mxCell id="fnlOzHqq1vUDck9NBwXH-37" value="Input Data" style="rhombus;whiteSpace=wrap;html=1;shadow=0;fontFamily=Helvetica;fontSize=12;align=center;strokeWidth=1;spacing=6;spacingTop=-4;" vertex="1" parent="WIyWlLk6GJQsqaUBKTNV-1">
          <mxGeometry x="610" y="230" width="100" height="80" as="geometry" />
        </mxCell>
        <mxCell id="fnlOzHqq1vUDck9NBwXH-38" value="Cetak STI/STI-N" style="shape=parallelogram;perimeter=parallelogramPerimeter;whiteSpace=wrap;html=1;fixedSize=1;" vertex="1" parent="WIyWlLk6GJQsqaUBKTNV-1">
          <mxGeometry x="160" y="660" width="120" height="60" as="geometry" />
        </mxCell>
        <mxCell id="fnlOzHqq1vUDck9NBwXH-49" value="" style="edgeStyle=orthogonalEdgeStyle;rounded=0;orthogonalLoop=1;jettySize=auto;html=1;" edge="1" parent="WIyWlLk6GJQsqaUBKTNV-1" source="fnlOzHqq1vUDck9NBwXH-42" target="fnlOzHqq1vUDck9NBwXH-48">
          <mxGeometry relative="1" as="geometry" />
        </mxCell>
        <mxCell id="fnlOzHqq1vUDck9NBwXH-50" style="edgeStyle=orthogonalEdgeStyle;rounded=0;orthogonalLoop=1;jettySize=auto;html=1;exitX=1;exitY=0.5;exitDx=0;exitDy=0;entryX=1;entryY=0.5;entryDx=0;entryDy=0;" edge="1" parent="WIyWlLk6GJQsqaUBKTNV-1" source="fnlOzHqq1vUDck9NBwXH-42" target="fnlOzHqq1vUDck9NBwXH-37">
          <mxGeometry relative="1" as="geometry">
            <Array as="points">
              <mxPoint x="740" y="390" />
              <mxPoint x="740" y="270" />
            </Array>
          </mxGeometry>
        </mxCell>
        <mxCell id="fnlOzHqq1vUDck9NBwXH-42" value="Simpan LPTI" style="rhombus;whiteSpace=wrap;html=1;shadow=0;fontFamily=Helvetica;fontSize=12;align=center;strokeWidth=1;spacing=6;spacingTop=-4;" vertex="1" parent="WIyWlLk6GJQsqaUBKTNV-1">
          <mxGeometry x="610" y="350" width="100" height="80" as="geometry" />
        </mxCell>
        <mxCell id="fnlOzHqq1vUDck9NBwXH-58" style="edgeStyle=orthogonalEdgeStyle;rounded=0;orthogonalLoop=1;jettySize=auto;html=1;" edge="1" parent="WIyWlLk6GJQsqaUBKTNV-1" source="fnlOzHqq1vUDck9NBwXH-48">
          <mxGeometry relative="1" as="geometry">
            <mxPoint x="660" y="560" as="targetPoint" />
          </mxGeometry>
        </mxCell>
        <mxCell id="fnlOzHqq1vUDck9NBwXH-60" style="edgeStyle=orthogonalEdgeStyle;rounded=0;orthogonalLoop=1;jettySize=auto;html=1;entryX=0;entryY=0.5;entryDx=0;entryDy=0;" edge="1" parent="WIyWlLk6GJQsqaUBKTNV-1" source="fnlOzHqq1vUDck9NBwXH-48" target="fnlOzHqq1vUDck9NBwXH-61">
          <mxGeometry relative="1" as="geometry">
            <mxPoint x="820" y="60" as="targetPoint" />
          </mxGeometry>
        </mxCell>
        <mxCell id="fnlOzHqq1vUDck9NBwXH-48" value="Index/List LPTI" style="rounded=1;whiteSpace=wrap;html=1;shadow=0;strokeWidth=1;spacing=6;spacingTop=-4;" vertex="1" parent="WIyWlLk6GJQsqaUBKTNV-1">
          <mxGeometry x="600" y="460" width="120" height="60" as="geometry" />
        </mxCell>
        <mxCell id="fnlOzHqq1vUDck9NBwXH-51" value="Yes" style="text;html=1;strokeColor=none;fillColor=none;align=center;verticalAlign=middle;whiteSpace=wrap;rounded=0;" vertex="1" parent="WIyWlLk6GJQsqaUBKTNV-1">
          <mxGeometry x="590" y="200" width="60" height="30" as="geometry" />
        </mxCell>
        <mxCell id="fnlOzHqq1vUDck9NBwXH-52" value="Yes" style="text;html=1;strokeColor=none;fillColor=none;align=center;verticalAlign=middle;whiteSpace=wrap;rounded=0;" vertex="1" parent="WIyWlLk6GJQsqaUBKTNV-1">
          <mxGeometry x="590" y="305" width="60" height="30" as="geometry" />
        </mxCell>
        <mxCell id="fnlOzHqq1vUDck9NBwXH-53" value="Yes" style="text;html=1;strokeColor=none;fillColor=none;align=center;verticalAlign=middle;whiteSpace=wrap;rounded=0;" vertex="1" parent="WIyWlLk6GJQsqaUBKTNV-1">
          <mxGeometry x="590" y="430" width="60" height="30" as="geometry" />
        </mxCell>
        <mxCell id="fnlOzHqq1vUDck9NBwXH-54" value="No" style="text;html=1;strokeColor=none;fillColor=none;align=center;verticalAlign=middle;whiteSpace=wrap;rounded=0;" vertex="1" parent="WIyWlLk6GJQsqaUBKTNV-1">
          <mxGeometry x="730" y="315" width="60" height="30" as="geometry" />
        </mxCell>
        <mxCell id="fnlOzHqq1vUDck9NBwXH-55" value="No" style="text;html=1;strokeColor=none;fillColor=none;align=center;verticalAlign=middle;whiteSpace=wrap;rounded=0;" vertex="1" parent="WIyWlLk6GJQsqaUBKTNV-1">
          <mxGeometry x="740" y="190" width="60" height="30" as="geometry" />
        </mxCell>
        <mxCell id="fnlOzHqq1vUDck9NBwXH-56" value="No" style="text;html=1;strokeColor=none;fillColor=none;align=center;verticalAlign=middle;whiteSpace=wrap;rounded=0;" vertex="1" parent="WIyWlLk6GJQsqaUBKTNV-1">
          <mxGeometry x="730" y="90" width="60" height="30" as="geometry" />
        </mxCell>
        <mxCell id="fnlOzHqq1vUDck9NBwXH-59" value="Cetak LPTI" style="shape=parallelogram;perimeter=parallelogramPerimeter;whiteSpace=wrap;html=1;fixedSize=1;" vertex="1" parent="WIyWlLk6GJQsqaUBKTNV-1">
          <mxGeometry x="600" y="560" width="120" height="60" as="geometry" />
        </mxCell>
        <mxCell id="fnlOzHqq1vUDck9NBwXH-76" style="edgeStyle=orthogonalEdgeStyle;rounded=0;orthogonalLoop=1;jettySize=auto;html=1;exitX=1;exitY=0.5;exitDx=0;exitDy=0;entryX=0;entryY=0.5;entryDx=0;entryDy=0;" edge="1" parent="WIyWlLk6GJQsqaUBKTNV-1" source="fnlOzHqq1vUDck9NBwXH-61" target="fnlOzHqq1vUDck9NBwXH-62">
          <mxGeometry relative="1" as="geometry" />
        </mxCell>
        <mxCell id="fnlOzHqq1vUDck9NBwXH-61" value="LPTI/LPTI-N" style="ellipse;whiteSpace=wrap;html=1;aspect=fixed;" vertex="1" parent="WIyWlLk6GJQsqaUBKTNV-1">
          <mxGeometry x="840" y="10" width="80" height="80" as="geometry" />
        </mxCell>
        <mxCell id="fnlOzHqq1vUDck9NBwXH-68" style="edgeStyle=orthogonalEdgeStyle;rounded=0;orthogonalLoop=1;jettySize=auto;html=1;" edge="1" parent="WIyWlLk6GJQsqaUBKTNV-1" source="fnlOzHqq1vUDck9NBwXH-62" target="fnlOzHqq1vUDck9NBwXH-63">
          <mxGeometry relative="1" as="geometry" />
        </mxCell>
        <mxCell id="fnlOzHqq1vUDck9NBwXH-62" value="List LPTI/LPTI-N" style="rounded=1;whiteSpace=wrap;html=1;" vertex="1" parent="WIyWlLk6GJQsqaUBKTNV-1">
          <mxGeometry x="950" y="20" width="120" height="60" as="geometry" />
        </mxCell>
        <mxCell id="fnlOzHqq1vUDck9NBwXH-69" style="edgeStyle=orthogonalEdgeStyle;rounded=0;orthogonalLoop=1;jettySize=auto;html=1;exitX=0.5;exitY=1;exitDx=0;exitDy=0;" edge="1" parent="WIyWlLk6GJQsqaUBKTNV-1" source="fnlOzHqq1vUDck9NBwXH-63" target="fnlOzHqq1vUDck9NBwXH-64">
          <mxGeometry relative="1" as="geometry" />
        </mxCell>
        <mxCell id="fnlOzHqq1vUDck9NBwXH-73" style="edgeStyle=orthogonalEdgeStyle;rounded=0;orthogonalLoop=1;jettySize=auto;html=1;exitX=1;exitY=0.5;exitDx=0;exitDy=0;entryX=1;entryY=0.5;entryDx=0;entryDy=0;" edge="1" parent="WIyWlLk6GJQsqaUBKTNV-1" source="fnlOzHqq1vUDck9NBwXH-63" target="fnlOzHqq1vUDck9NBwXH-62">
          <mxGeometry relative="1" as="geometry" />
        </mxCell>
        <mxCell id="fnlOzHqq1vUDck9NBwXH-63" value="Rekam LPPI/LPPI-N" style="rhombus;whiteSpace=wrap;html=1;shadow=0;fontFamily=Helvetica;fontSize=12;align=center;strokeWidth=1;spacing=6;spacingTop=-4;" vertex="1" parent="WIyWlLk6GJQsqaUBKTNV-1">
          <mxGeometry x="960" y="120" width="100" height="80" as="geometry" />
        </mxCell>
        <mxCell id="fnlOzHqq1vUDck9NBwXH-70" style="edgeStyle=orthogonalEdgeStyle;rounded=0;orthogonalLoop=1;jettySize=auto;html=1;exitX=0.5;exitY=1;exitDx=0;exitDy=0;entryX=0.5;entryY=0;entryDx=0;entryDy=0;" edge="1" parent="WIyWlLk6GJQsqaUBKTNV-1" source="fnlOzHqq1vUDck9NBwXH-64" target="fnlOzHqq1vUDck9NBwXH-65">
          <mxGeometry relative="1" as="geometry" />
        </mxCell>
        <mxCell id="fnlOzHqq1vUDck9NBwXH-74" style="edgeStyle=orthogonalEdgeStyle;rounded=0;orthogonalLoop=1;jettySize=auto;html=1;exitX=1;exitY=0.5;exitDx=0;exitDy=0;" edge="1" parent="WIyWlLk6GJQsqaUBKTNV-1" source="fnlOzHqq1vUDck9NBwXH-64">
          <mxGeometry relative="1" as="geometry">
            <mxPoint x="1060" y="160" as="targetPoint" />
            <Array as="points">
              <mxPoint x="1080" y="270" />
              <mxPoint x="1080" y="160" />
            </Array>
          </mxGeometry>
        </mxCell>
        <mxCell id="fnlOzHqq1vUDck9NBwXH-64" value="Input Data" style="rhombus;whiteSpace=wrap;html=1;shadow=0;fontFamily=Helvetica;fontSize=12;align=center;strokeWidth=1;spacing=6;spacingTop=-4;" vertex="1" parent="WIyWlLk6GJQsqaUBKTNV-1">
          <mxGeometry x="960" y="230" width="100" height="80" as="geometry" />
        </mxCell>
        <mxCell id="fnlOzHqq1vUDck9NBwXH-71" style="edgeStyle=orthogonalEdgeStyle;rounded=0;orthogonalLoop=1;jettySize=auto;html=1;exitX=0.5;exitY=1;exitDx=0;exitDy=0;entryX=0.5;entryY=0;entryDx=0;entryDy=0;" edge="1" parent="WIyWlLk6GJQsqaUBKTNV-1" source="fnlOzHqq1vUDck9NBwXH-65" target="fnlOzHqq1vUDck9NBwXH-66">
          <mxGeometry relative="1" as="geometry" />
        </mxCell>
        <mxCell id="fnlOzHqq1vUDck9NBwXH-75" style="edgeStyle=orthogonalEdgeStyle;rounded=0;orthogonalLoop=1;jettySize=auto;html=1;exitX=1;exitY=0.5;exitDx=0;exitDy=0;entryX=1;entryY=0.5;entryDx=0;entryDy=0;" edge="1" parent="WIyWlLk6GJQsqaUBKTNV-1" source="fnlOzHqq1vUDck9NBwXH-65" target="fnlOzHqq1vUDck9NBwXH-64">
          <mxGeometry relative="1" as="geometry" />
        </mxCell>
        <mxCell id="fnlOzHqq1vUDck9NBwXH-65" value="Simpan LPPI" style="rhombus;whiteSpace=wrap;html=1;shadow=0;fontFamily=Helvetica;fontSize=12;align=center;strokeWidth=1;spacing=6;spacingTop=-4;" vertex="1" parent="WIyWlLk6GJQsqaUBKTNV-1">
          <mxGeometry x="960" y="350" width="100" height="80" as="geometry" />
        </mxCell>
        <mxCell id="fnlOzHqq1vUDck9NBwXH-72" style="edgeStyle=orthogonalEdgeStyle;rounded=0;orthogonalLoop=1;jettySize=auto;html=1;exitX=0.5;exitY=1;exitDx=0;exitDy=0;" edge="1" parent="WIyWlLk6GJQsqaUBKTNV-1" source="fnlOzHqq1vUDck9NBwXH-66" target="fnlOzHqq1vUDck9NBwXH-67">
          <mxGeometry relative="1" as="geometry" />
        </mxCell>
        <mxCell id="fnlOzHqq1vUDck9NBwXH-77" style="edgeStyle=orthogonalEdgeStyle;rounded=0;orthogonalLoop=1;jettySize=auto;html=1;exitX=1;exitY=0.5;exitDx=0;exitDy=0;entryX=0;entryY=0.5;entryDx=0;entryDy=0;" edge="1" parent="WIyWlLk6GJQsqaUBKTNV-1" source="fnlOzHqq1vUDck9NBwXH-66" target="fnlOzHqq1vUDck9NBwXH-78">
          <mxGeometry relative="1" as="geometry">
            <mxPoint x="1180" y="40" as="targetPoint" />
          </mxGeometry>
        </mxCell>
        <mxCell id="fnlOzHqq1vUDck9NBwXH-66" value="Index/List LPPI" style="rounded=1;whiteSpace=wrap;html=1;shadow=0;strokeWidth=1;spacing=6;spacingTop=-4;" vertex="1" parent="WIyWlLk6GJQsqaUBKTNV-1">
          <mxGeometry x="950" y="460" width="120" height="60" as="geometry" />
        </mxCell>
        <mxCell id="fnlOzHqq1vUDck9NBwXH-67" value="Cetak LPPI" style="shape=parallelogram;perimeter=parallelogramPerimeter;whiteSpace=wrap;html=1;fixedSize=1;" vertex="1" parent="WIyWlLk6GJQsqaUBKTNV-1">
          <mxGeometry x="950" y="560" width="120" height="60" as="geometry" />
        </mxCell>
        <mxCell id="fnlOzHqq1vUDck9NBwXH-82" style="edgeStyle=orthogonalEdgeStyle;rounded=0;orthogonalLoop=1;jettySize=auto;html=1;exitX=1;exitY=0.5;exitDx=0;exitDy=0;entryX=0;entryY=0.5;entryDx=0;entryDy=0;" edge="1" parent="WIyWlLk6GJQsqaUBKTNV-1" source="fnlOzHqq1vUDck9NBwXH-78" target="fnlOzHqq1vUDck9NBwXH-81">
          <mxGeometry relative="1" as="geometry" />
        </mxCell>
        <mxCell id="fnlOzHqq1vUDck9NBwXH-78" value="LPPI/LPPI-N" style="ellipse;whiteSpace=wrap;html=1;aspect=fixed;" vertex="1" parent="WIyWlLk6GJQsqaUBKTNV-1">
          <mxGeometry x="1150" y="11" width="79" height="79" as="geometry" />
        </mxCell>
        <mxCell id="fnlOzHqq1vUDck9NBwXH-85" style="edgeStyle=orthogonalEdgeStyle;rounded=0;orthogonalLoop=1;jettySize=auto;html=1;entryX=0.5;entryY=0;entryDx=0;entryDy=0;" edge="1" parent="WIyWlLk6GJQsqaUBKTNV-1" source="fnlOzHqq1vUDck9NBwXH-81" target="fnlOzHqq1vUDck9NBwXH-84">
          <mxGeometry relative="1" as="geometry" />
        </mxCell>
        <mxCell id="fnlOzHqq1vUDck9NBwXH-81" value="List LPPI/LPPI-N" style="rounded=1;whiteSpace=wrap;html=1;" vertex="1" parent="WIyWlLk6GJQsqaUBKTNV-1">
          <mxGeometry x="1260" y="20.5" width="120" height="60" as="geometry" />
        </mxCell>
        <mxCell id="fnlOzHqq1vUDck9NBwXH-86" style="edgeStyle=orthogonalEdgeStyle;rounded=0;orthogonalLoop=1;jettySize=auto;html=1;exitX=0.5;exitY=1;exitDx=0;exitDy=0;" edge="1" parent="WIyWlLk6GJQsqaUBKTNV-1" source="fnlOzHqq1vUDck9NBwXH-84">
          <mxGeometry relative="1" as="geometry">
            <mxPoint x="1320" y="220" as="targetPoint" />
          </mxGeometry>
        </mxCell>
        <mxCell id="fnlOzHqq1vUDck9NBwXH-87" style="edgeStyle=orthogonalEdgeStyle;rounded=0;orthogonalLoop=1;jettySize=auto;html=1;exitX=1;exitY=0.5;exitDx=0;exitDy=0;" edge="1" parent="WIyWlLk6GJQsqaUBKTNV-1" source="fnlOzHqq1vUDck9NBwXH-84" target="fnlOzHqq1vUDck9NBwXH-81">
          <mxGeometry relative="1" as="geometry">
            <mxPoint x="1420" y="50" as="targetPoint" />
            <Array as="points">
              <mxPoint x="1430" y="150" />
              <mxPoint x="1430" y="51" />
            </Array>
          </mxGeometry>
        </mxCell>
        <mxCell id="fnlOzHqq1vUDck9NBwXH-84" value="Dapat Info Non ST?" style="rhombus;whiteSpace=wrap;html=1;" vertex="1" parent="WIyWlLk6GJQsqaUBKTNV-1">
          <mxGeometry x="1280" y="110" width="80" height="80" as="geometry" />
        </mxCell>
        <mxCell id="fnlOzHqq1vUDck9NBwXH-89" style="edgeStyle=orthogonalEdgeStyle;rounded=0;orthogonalLoop=1;jettySize=auto;html=1;exitX=1;exitY=0.5;exitDx=0;exitDy=0;entryX=1;entryY=0.5;entryDx=0;entryDy=0;" edge="1" parent="WIyWlLk6GJQsqaUBKTNV-1" source="fnlOzHqq1vUDck9NBwXH-88" target="fnlOzHqq1vUDck9NBwXH-84">
          <mxGeometry relative="1" as="geometry">
            <Array as="points">
              <mxPoint x="1430" y="260" />
              <mxPoint x="1430" y="150" />
            </Array>
          </mxGeometry>
        </mxCell>
        <mxCell id="fnlOzHqq1vUDck9NBwXH-91" style="edgeStyle=orthogonalEdgeStyle;rounded=0;orthogonalLoop=1;jettySize=auto;html=1;exitX=0.5;exitY=1;exitDx=0;exitDy=0;" edge="1" parent="WIyWlLk6GJQsqaUBKTNV-1" source="fnlOzHqq1vUDck9NBwXH-88" target="fnlOzHqq1vUDck9NBwXH-90">
          <mxGeometry relative="1" as="geometry" />
        </mxCell>
        <mxCell id="fnlOzHqq1vUDck9NBwXH-88" value="Rekam LPPI" style="rhombus;whiteSpace=wrap;html=1;" vertex="1" parent="WIyWlLk6GJQsqaUBKTNV-1">
          <mxGeometry x="1280" y="220" width="80" height="80" as="geometry" />
        </mxCell>
        <mxCell id="fnlOzHqq1vUDck9NBwXH-92" style="edgeStyle=orthogonalEdgeStyle;rounded=0;orthogonalLoop=1;jettySize=auto;html=1;exitX=1;exitY=0.5;exitDx=0;exitDy=0;entryX=1;entryY=0.5;entryDx=0;entryDy=0;" edge="1" parent="WIyWlLk6GJQsqaUBKTNV-1" source="fnlOzHqq1vUDck9NBwXH-90" target="fnlOzHqq1vUDck9NBwXH-88">
          <mxGeometry relative="1" as="geometry">
            <Array as="points">
              <mxPoint x="1430" y="370" />
              <mxPoint x="1430" y="260" />
            </Array>
          </mxGeometry>
        </mxCell>
        <mxCell id="fnlOzHqq1vUDck9NBwXH-93" style="edgeStyle=orthogonalEdgeStyle;rounded=0;orthogonalLoop=1;jettySize=auto;html=1;exitX=0.5;exitY=1;exitDx=0;exitDy=0;" edge="1" parent="WIyWlLk6GJQsqaUBKTNV-1" source="fnlOzHqq1vUDck9NBwXH-90">
          <mxGeometry relative="1" as="geometry">
            <mxPoint x="1320" y="450" as="targetPoint" />
          </mxGeometry>
        </mxCell>
        <mxCell id="fnlOzHqq1vUDck9NBwXH-90" value="Simpan" style="rhombus;whiteSpace=wrap;html=1;" vertex="1" parent="WIyWlLk6GJQsqaUBKTNV-1">
          <mxGeometry x="1280" y="330" width="80" height="80" as="geometry" />
        </mxCell>
        <mxCell id="fnlOzHqq1vUDck9NBwXH-97" style="edgeStyle=orthogonalEdgeStyle;rounded=0;orthogonalLoop=1;jettySize=auto;html=1;entryX=0.5;entryY=0;entryDx=0;entryDy=0;" edge="1" parent="WIyWlLk6GJQsqaUBKTNV-1" source="fnlOzHqq1vUDck9NBwXH-95" target="fnlOzHqq1vUDck9NBwXH-96">
          <mxGeometry relative="1" as="geometry" />
        </mxCell>
        <mxCell id="fnlOzHqq1vUDck9NBwXH-95" value="Index/List LPPI" style="rounded=1;whiteSpace=wrap;html=1;shadow=0;strokeWidth=1;spacing=6;spacingTop=-4;" vertex="1" parent="WIyWlLk6GJQsqaUBKTNV-1">
          <mxGeometry x="1260" y="450" width="120" height="60" as="geometry" />
        </mxCell>
        <mxCell id="fnlOzHqq1vUDck9NBwXH-98" style="edgeStyle=orthogonalEdgeStyle;rounded=0;orthogonalLoop=1;jettySize=auto;html=1;exitX=1;exitY=0.5;exitDx=0;exitDy=0;entryX=1;entryY=0.5;entryDx=0;entryDy=0;" edge="1" parent="WIyWlLk6GJQsqaUBKTNV-1" source="fnlOzHqq1vUDck9NBwXH-96" target="fnlOzHqq1vUDck9NBwXH-95">
          <mxGeometry relative="1" as="geometry" />
        </mxCell>
        <mxCell id="fnlOzHqq1vUDck9NBwXH-100" style="edgeStyle=orthogonalEdgeStyle;rounded=0;orthogonalLoop=1;jettySize=auto;html=1;" edge="1" parent="WIyWlLk6GJQsqaUBKTNV-1" source="fnlOzHqq1vUDck9NBwXH-96" target="fnlOzHqq1vUDck9NBwXH-99">
          <mxGeometry relative="1" as="geometry" />
        </mxCell>
        <mxCell id="fnlOzHqq1vUDck9NBwXH-96" value="Rekam LKAI/LKAI-N?&lt;br&gt;" style="rhombus;whiteSpace=wrap;html=1;" vertex="1" parent="WIyWlLk6GJQsqaUBKTNV-1">
          <mxGeometry x="1250" y="545" width="140" height="130" as="geometry" />
        </mxCell>
        <mxCell id="fnlOzHqq1vUDck9NBwXH-101" style="edgeStyle=orthogonalEdgeStyle;rounded=0;orthogonalLoop=1;jettySize=auto;html=1;exitX=1;exitY=0.5;exitDx=0;exitDy=0;entryX=1;entryY=0.5;entryDx=0;entryDy=0;" edge="1" parent="WIyWlLk6GJQsqaUBKTNV-1" source="fnlOzHqq1vUDck9NBwXH-99" target="fnlOzHqq1vUDck9NBwXH-96">
          <mxGeometry relative="1" as="geometry">
            <Array as="points">
              <mxPoint x="1410" y="775" />
              <mxPoint x="1410" y="610" />
            </Array>
          </mxGeometry>
        </mxCell>
        <mxCell id="fnlOzHqq1vUDck9NBwXH-104" style="edgeStyle=orthogonalEdgeStyle;rounded=0;orthogonalLoop=1;jettySize=auto;html=1;exitX=0.5;exitY=1;exitDx=0;exitDy=0;" edge="1" parent="WIyWlLk6GJQsqaUBKTNV-1" source="fnlOzHqq1vUDck9NBwXH-99" target="fnlOzHqq1vUDck9NBwXH-103">
          <mxGeometry relative="1" as="geometry" />
        </mxCell>
        <mxCell id="fnlOzHqq1vUDck9NBwXH-99" value="Simpan LKAI/LKAI-N" style="rhombus;whiteSpace=wrap;html=1;" vertex="1" parent="WIyWlLk6GJQsqaUBKTNV-1">
          <mxGeometry x="1270" y="720" width="100" height="110" as="geometry" />
        </mxCell>
        <mxCell id="fnlOzHqq1vUDck9NBwXH-105" style="edgeStyle=orthogonalEdgeStyle;rounded=0;orthogonalLoop=1;jettySize=auto;html=1;exitX=1;exitY=0.5;exitDx=0;exitDy=0;entryX=0;entryY=0.5;entryDx=0;entryDy=0;" edge="1" parent="WIyWlLk6GJQsqaUBKTNV-1" source="fnlOzHqq1vUDck9NBwXH-103" target="fnlOzHqq1vUDck9NBwXH-106">
          <mxGeometry relative="1" as="geometry">
            <mxPoint x="1480" y="50" as="targetPoint" />
            <Array as="points">
              <mxPoint x="1470" y="900" />
              <mxPoint x="1470" y="50" />
            </Array>
          </mxGeometry>
        </mxCell>
        <mxCell id="fnlOzHqq1vUDck9NBwXH-103" value="Index LKAI/LKAI-N" style="rounded=1;whiteSpace=wrap;html=1;shadow=0;strokeWidth=1;spacing=6;spacingTop=-4;" vertex="1" parent="WIyWlLk6GJQsqaUBKTNV-1">
          <mxGeometry x="1260" y="870" width="120" height="60" as="geometry" />
        </mxCell>
        <mxCell id="fnlOzHqq1vUDck9NBwXH-108" style="edgeStyle=orthogonalEdgeStyle;rounded=0;orthogonalLoop=1;jettySize=auto;html=1;exitX=1;exitY=0.5;exitDx=0;exitDy=0;entryX=0;entryY=0.5;entryDx=0;entryDy=0;" edge="1" parent="WIyWlLk6GJQsqaUBKTNV-1" source="fnlOzHqq1vUDck9NBwXH-106" target="fnlOzHqq1vUDck9NBwXH-107">
          <mxGeometry relative="1" as="geometry" />
        </mxCell>
        <mxCell id="fnlOzHqq1vUDck9NBwXH-106" value="LKAI-LKAI-N" style="ellipse;whiteSpace=wrap;html=1;aspect=fixed;" vertex="1" parent="WIyWlLk6GJQsqaUBKTNV-1">
          <mxGeometry x="1510" y="10" width="79" height="79" as="geometry" />
        </mxCell>
        <mxCell id="fnlOzHqq1vUDck9NBwXH-109" style="edgeStyle=orthogonalEdgeStyle;rounded=0;orthogonalLoop=1;jettySize=auto;html=1;exitX=0.5;exitY=1;exitDx=0;exitDy=0;" edge="1" parent="WIyWlLk6GJQsqaUBKTNV-1" source="fnlOzHqq1vUDck9NBwXH-107">
          <mxGeometry relative="1" as="geometry">
            <mxPoint x="1680" y="110" as="targetPoint" />
          </mxGeometry>
        </mxCell>
        <mxCell id="fnlOzHqq1vUDck9NBwXH-107" value="List LKAI/LKAI-N" style="rounded=1;whiteSpace=wrap;html=1;" vertex="1" parent="WIyWlLk6GJQsqaUBKTNV-1">
          <mxGeometry x="1620" y="19.5" width="120" height="60" as="geometry" />
        </mxCell>
        <mxCell id="fnlOzHqq1vUDck9NBwXH-111" style="edgeStyle=orthogonalEdgeStyle;rounded=0;orthogonalLoop=1;jettySize=auto;html=1;exitX=0.5;exitY=1;exitDx=0;exitDy=0;" edge="1" parent="WIyWlLk6GJQsqaUBKTNV-1" source="fnlOzHqq1vUDck9NBwXH-110">
          <mxGeometry relative="1" as="geometry">
            <mxPoint x="1680" y="230" as="targetPoint" />
          </mxGeometry>
        </mxCell>
        <mxCell id="fnlOzHqq1vUDck9NBwXH-120" style="edgeStyle=orthogonalEdgeStyle;rounded=0;orthogonalLoop=1;jettySize=auto;html=1;exitX=1;exitY=0.5;exitDx=0;exitDy=0;" edge="1" parent="WIyWlLk6GJQsqaUBKTNV-1" source="fnlOzHqq1vUDck9NBwXH-110">
          <mxGeometry relative="1" as="geometry">
            <mxPoint x="1780" y="150" as="targetPoint" />
          </mxGeometry>
        </mxCell>
        <mxCell id="fnlOzHqq1vUDck9NBwXH-110" value="Buat NHI" style="rhombus;whiteSpace=wrap;html=1;" vertex="1" parent="WIyWlLk6GJQsqaUBKTNV-1">
          <mxGeometry x="1640" y="110" width="80" height="80" as="geometry" />
        </mxCell>
        <mxCell id="fnlOzHqq1vUDck9NBwXH-115" style="edgeStyle=orthogonalEdgeStyle;rounded=0;orthogonalLoop=1;jettySize=auto;html=1;exitX=0.5;exitY=1;exitDx=0;exitDy=0;entryX=0.5;entryY=0;entryDx=0;entryDy=0;" edge="1" parent="WIyWlLk6GJQsqaUBKTNV-1" source="fnlOzHqq1vUDck9NBwXH-112" target="fnlOzHqq1vUDck9NBwXH-113">
          <mxGeometry relative="1" as="geometry" />
        </mxCell>
        <mxCell id="fnlOzHqq1vUDck9NBwXH-149" style="edgeStyle=orthogonalEdgeStyle;rounded=0;orthogonalLoop=1;jettySize=auto;html=1;exitX=1;exitY=0.5;exitDx=0;exitDy=0;entryX=0;entryY=0.5;entryDx=0;entryDy=0;" edge="1" parent="WIyWlLk6GJQsqaUBKTNV-1" source="fnlOzHqq1vUDck9NBwXH-112" target="fnlOzHqq1vUDck9NBwXH-128">
          <mxGeometry relative="1" as="geometry" />
        </mxCell>
        <mxCell id="fnlOzHqq1vUDck9NBwXH-112" value="Buat NI" style="rhombus;whiteSpace=wrap;html=1;" vertex="1" parent="WIyWlLk6GJQsqaUBKTNV-1">
          <mxGeometry x="1640" y="230" width="80" height="80" as="geometry" />
        </mxCell>
        <mxCell id="fnlOzHqq1vUDck9NBwXH-116" style="edgeStyle=orthogonalEdgeStyle;rounded=0;orthogonalLoop=1;jettySize=auto;html=1;exitX=0.5;exitY=1;exitDx=0;exitDy=0;" edge="1" parent="WIyWlLk6GJQsqaUBKTNV-1" source="fnlOzHqq1vUDck9NBwXH-113" target="fnlOzHqq1vUDck9NBwXH-114">
          <mxGeometry relative="1" as="geometry" />
        </mxCell>
        <mxCell id="fnlOzHqq1vUDck9NBwXH-150" style="edgeStyle=orthogonalEdgeStyle;rounded=0;orthogonalLoop=1;jettySize=auto;html=1;entryX=0;entryY=0.5;entryDx=0;entryDy=0;" edge="1" parent="WIyWlLk6GJQsqaUBKTNV-1" source="fnlOzHqq1vUDck9NBwXH-113" target="fnlOzHqq1vUDck9NBwXH-132">
          <mxGeometry relative="1" as="geometry" />
        </mxCell>
        <mxCell id="fnlOzHqq1vUDck9NBwXH-113" value="Buat Rekom Lainnya" style="rhombus;whiteSpace=wrap;html=1;" vertex="1" parent="WIyWlLk6GJQsqaUBKTNV-1">
          <mxGeometry x="1640" y="335" width="80" height="80" as="geometry" />
        </mxCell>
        <mxCell id="fnlOzHqq1vUDck9NBwXH-151" style="edgeStyle=orthogonalEdgeStyle;rounded=0;orthogonalLoop=1;jettySize=auto;html=1;exitX=1;exitY=0.5;exitDx=0;exitDy=0;entryX=0;entryY=0.5;entryDx=0;entryDy=0;" edge="1" parent="WIyWlLk6GJQsqaUBKTNV-1" source="fnlOzHqq1vUDck9NBwXH-114" target="fnlOzHqq1vUDck9NBwXH-136">
          <mxGeometry relative="1" as="geometry" />
        </mxCell>
        <mxCell id="fnlOzHqq1vUDck9NBwXH-114" value="Update Info" style="rhombus;whiteSpace=wrap;html=1;" vertex="1" parent="WIyWlLk6GJQsqaUBKTNV-1">
          <mxGeometry x="1640" y="450" width="80" height="80" as="geometry" />
        </mxCell>
        <mxCell id="fnlOzHqq1vUDck9NBwXH-117" value="No" style="text;html=1;strokeColor=none;fillColor=none;align=center;verticalAlign=middle;whiteSpace=wrap;rounded=0;" vertex="1" parent="WIyWlLk6GJQsqaUBKTNV-1">
          <mxGeometry x="1680" y="190" width="60" height="30" as="geometry" />
        </mxCell>
        <mxCell id="fnlOzHqq1vUDck9NBwXH-118" value="No" style="text;html=1;strokeColor=none;fillColor=none;align=center;verticalAlign=middle;whiteSpace=wrap;rounded=0;" vertex="1" parent="WIyWlLk6GJQsqaUBKTNV-1">
          <mxGeometry x="1680" y="305" width="60" height="30" as="geometry" />
        </mxCell>
        <mxCell id="fnlOzHqq1vUDck9NBwXH-119" value="No" style="text;html=1;strokeColor=none;fillColor=none;align=center;verticalAlign=middle;whiteSpace=wrap;rounded=0;" vertex="1" parent="WIyWlLk6GJQsqaUBKTNV-1">
          <mxGeometry x="1690" y="420" width="60" height="30" as="geometry" />
        </mxCell>
        <mxCell id="fnlOzHqq1vUDck9NBwXH-123" value="" style="edgeStyle=orthogonalEdgeStyle;rounded=0;orthogonalLoop=1;jettySize=auto;html=1;" edge="1" parent="WIyWlLk6GJQsqaUBKTNV-1" source="fnlOzHqq1vUDck9NBwXH-121" target="fnlOzHqq1vUDck9NBwXH-122">
          <mxGeometry relative="1" as="geometry" />
        </mxCell>
        <mxCell id="fnlOzHqq1vUDck9NBwXH-121" value="Siapkan Data NHI" style="rounded=1;whiteSpace=wrap;html=1;" vertex="1" parent="WIyWlLk6GJQsqaUBKTNV-1">
          <mxGeometry x="1780" y="120" width="100" height="60" as="geometry" />
        </mxCell>
        <mxCell id="fnlOzHqq1vUDck9NBwXH-125" value="" style="edgeStyle=orthogonalEdgeStyle;rounded=0;orthogonalLoop=1;jettySize=auto;html=1;" edge="1" parent="WIyWlLk6GJQsqaUBKTNV-1" source="fnlOzHqq1vUDck9NBwXH-122" target="fnlOzHqq1vUDck9NBwXH-124">
          <mxGeometry relative="1" as="geometry" />
        </mxCell>
        <mxCell id="fnlOzHqq1vUDck9NBwXH-122" value="Rekam" style="rhombus;whiteSpace=wrap;html=1;rounded=1;" vertex="1" parent="WIyWlLk6GJQsqaUBKTNV-1">
          <mxGeometry x="1930" y="110" width="80" height="80" as="geometry" />
        </mxCell>
        <mxCell id="fnlOzHqq1vUDck9NBwXH-127" value="" style="edgeStyle=orthogonalEdgeStyle;rounded=0;orthogonalLoop=1;jettySize=auto;html=1;" edge="1" parent="WIyWlLk6GJQsqaUBKTNV-1" source="fnlOzHqq1vUDck9NBwXH-124" target="fnlOzHqq1vUDck9NBwXH-126">
          <mxGeometry relative="1" as="geometry" />
        </mxCell>
        <mxCell id="fnlOzHqq1vUDck9NBwXH-124" value="Simpan" style="rhombus;whiteSpace=wrap;html=1;rounded=1;" vertex="1" parent="WIyWlLk6GJQsqaUBKTNV-1">
          <mxGeometry x="2040" y="110" width="80" height="80" as="geometry" />
        </mxCell>
        <mxCell id="fnlOzHqq1vUDck9NBwXH-126" value="List NHI/NHI-N" style="whiteSpace=wrap;html=1;rounded=1;" vertex="1" parent="WIyWlLk6GJQsqaUBKTNV-1">
          <mxGeometry x="2160" y="120" width="120" height="60" as="geometry" />
        </mxCell>
        <mxCell id="fnlOzHqq1vUDck9NBwXH-140" style="edgeStyle=orthogonalEdgeStyle;rounded=0;orthogonalLoop=1;jettySize=auto;html=1;exitX=1;exitY=0.5;exitDx=0;exitDy=0;entryX=0;entryY=0.5;entryDx=0;entryDy=0;" edge="1" parent="WIyWlLk6GJQsqaUBKTNV-1" source="fnlOzHqq1vUDck9NBwXH-128" target="fnlOzHqq1vUDck9NBwXH-129">
          <mxGeometry relative="1" as="geometry" />
        </mxCell>
        <mxCell id="fnlOzHqq1vUDck9NBwXH-128" value="Siapkan Data NI" style="rounded=1;whiteSpace=wrap;html=1;" vertex="1" parent="WIyWlLk6GJQsqaUBKTNV-1">
          <mxGeometry x="1780" y="240" width="100" height="60" as="geometry" />
        </mxCell>
        <mxCell id="fnlOzHqq1vUDck9NBwXH-143" style="edgeStyle=orthogonalEdgeStyle;rounded=0;orthogonalLoop=1;jettySize=auto;html=1;entryX=0;entryY=0.5;entryDx=0;entryDy=0;" edge="1" parent="WIyWlLk6GJQsqaUBKTNV-1" source="fnlOzHqq1vUDck9NBwXH-129" target="fnlOzHqq1vUDck9NBwXH-130">
          <mxGeometry relative="1" as="geometry" />
        </mxCell>
        <mxCell id="fnlOzHqq1vUDck9NBwXH-129" value="Rekam" style="rhombus;whiteSpace=wrap;html=1;rounded=1;" vertex="1" parent="WIyWlLk6GJQsqaUBKTNV-1">
          <mxGeometry x="1930" y="230" width="80" height="80" as="geometry" />
        </mxCell>
        <mxCell id="fnlOzHqq1vUDck9NBwXH-146" style="edgeStyle=orthogonalEdgeStyle;rounded=0;orthogonalLoop=1;jettySize=auto;html=1;exitX=1;exitY=0.5;exitDx=0;exitDy=0;entryX=0;entryY=0.5;entryDx=0;entryDy=0;" edge="1" parent="WIyWlLk6GJQsqaUBKTNV-1" source="fnlOzHqq1vUDck9NBwXH-130" target="fnlOzHqq1vUDck9NBwXH-131">
          <mxGeometry relative="1" as="geometry" />
        </mxCell>
        <mxCell id="fnlOzHqq1vUDck9NBwXH-130" value="Simpan" style="rhombus;whiteSpace=wrap;html=1;rounded=1;" vertex="1" parent="WIyWlLk6GJQsqaUBKTNV-1">
          <mxGeometry x="2040" y="230" width="80" height="80" as="geometry" />
        </mxCell>
        <mxCell id="fnlOzHqq1vUDck9NBwXH-131" value="List NI/NI-N" style="whiteSpace=wrap;html=1;rounded=1;" vertex="1" parent="WIyWlLk6GJQsqaUBKTNV-1">
          <mxGeometry x="2160" y="240" width="120" height="60" as="geometry" />
        </mxCell>
        <mxCell id="fnlOzHqq1vUDck9NBwXH-141" style="edgeStyle=orthogonalEdgeStyle;rounded=0;orthogonalLoop=1;jettySize=auto;html=1;exitX=1;exitY=0.5;exitDx=0;exitDy=0;entryX=0;entryY=0.5;entryDx=0;entryDy=0;" edge="1" parent="WIyWlLk6GJQsqaUBKTNV-1" source="fnlOzHqq1vUDck9NBwXH-132" target="fnlOzHqq1vUDck9NBwXH-133">
          <mxGeometry relative="1" as="geometry" />
        </mxCell>
        <mxCell id="fnlOzHqq1vUDck9NBwXH-132" value="Siapkan Data Rekom" style="rounded=1;whiteSpace=wrap;html=1;" vertex="1" parent="WIyWlLk6GJQsqaUBKTNV-1">
          <mxGeometry x="1780" y="345" width="100" height="60" as="geometry" />
        </mxCell>
        <mxCell id="fnlOzHqq1vUDck9NBwXH-144" style="edgeStyle=orthogonalEdgeStyle;rounded=0;orthogonalLoop=1;jettySize=auto;html=1;exitX=1;exitY=0.5;exitDx=0;exitDy=0;entryX=0;entryY=0.5;entryDx=0;entryDy=0;" edge="1" parent="WIyWlLk6GJQsqaUBKTNV-1" source="fnlOzHqq1vUDck9NBwXH-133" target="fnlOzHqq1vUDck9NBwXH-134">
          <mxGeometry relative="1" as="geometry" />
        </mxCell>
        <mxCell id="fnlOzHqq1vUDck9NBwXH-133" value="Rekam" style="rhombus;whiteSpace=wrap;html=1;rounded=1;" vertex="1" parent="WIyWlLk6GJQsqaUBKTNV-1">
          <mxGeometry x="1930" y="335" width="80" height="80" as="geometry" />
        </mxCell>
        <mxCell id="fnlOzHqq1vUDck9NBwXH-147" style="edgeStyle=orthogonalEdgeStyle;rounded=0;orthogonalLoop=1;jettySize=auto;html=1;exitX=1;exitY=0.5;exitDx=0;exitDy=0;entryX=0;entryY=0.5;entryDx=0;entryDy=0;" edge="1" parent="WIyWlLk6GJQsqaUBKTNV-1" source="fnlOzHqq1vUDck9NBwXH-134" target="fnlOzHqq1vUDck9NBwXH-135">
          <mxGeometry relative="1" as="geometry" />
        </mxCell>
        <mxCell id="fnlOzHqq1vUDck9NBwXH-134" value="Simpan" style="rhombus;whiteSpace=wrap;html=1;rounded=1;" vertex="1" parent="WIyWlLk6GJQsqaUBKTNV-1">
          <mxGeometry x="2040" y="335" width="80" height="80" as="geometry" />
        </mxCell>
        <mxCell id="fnlOzHqq1vUDck9NBwXH-135" value="List Rekom" style="whiteSpace=wrap;html=1;rounded=1;" vertex="1" parent="WIyWlLk6GJQsqaUBKTNV-1">
          <mxGeometry x="2160" y="345" width="120" height="60" as="geometry" />
        </mxCell>
        <mxCell id="fnlOzHqq1vUDck9NBwXH-142" style="edgeStyle=orthogonalEdgeStyle;rounded=0;orthogonalLoop=1;jettySize=auto;html=1;exitX=1;exitY=0.5;exitDx=0;exitDy=0;entryX=0;entryY=0.5;entryDx=0;entryDy=0;" edge="1" parent="WIyWlLk6GJQsqaUBKTNV-1" source="fnlOzHqq1vUDck9NBwXH-136" target="fnlOzHqq1vUDck9NBwXH-137">
          <mxGeometry relative="1" as="geometry" />
        </mxCell>
        <mxCell id="fnlOzHqq1vUDck9NBwXH-136" value="Siapkan Data Info" style="rounded=1;whiteSpace=wrap;html=1;" vertex="1" parent="WIyWlLk6GJQsqaUBKTNV-1">
          <mxGeometry x="1780" y="460" width="100" height="60" as="geometry" />
        </mxCell>
        <mxCell id="fnlOzHqq1vUDck9NBwXH-145" style="edgeStyle=orthogonalEdgeStyle;rounded=0;orthogonalLoop=1;jettySize=auto;html=1;exitX=1;exitY=0.5;exitDx=0;exitDy=0;" edge="1" parent="WIyWlLk6GJQsqaUBKTNV-1" source="fnlOzHqq1vUDck9NBwXH-137" target="fnlOzHqq1vUDck9NBwXH-138">
          <mxGeometry relative="1" as="geometry" />
        </mxCell>
        <mxCell id="fnlOzHqq1vUDck9NBwXH-137" value="Rekam" style="rhombus;whiteSpace=wrap;html=1;rounded=1;" vertex="1" parent="WIyWlLk6GJQsqaUBKTNV-1">
          <mxGeometry x="1930" y="450" width="80" height="80" as="geometry" />
        </mxCell>
        <mxCell id="fnlOzHqq1vUDck9NBwXH-148" style="edgeStyle=orthogonalEdgeStyle;rounded=0;orthogonalLoop=1;jettySize=auto;html=1;exitX=1;exitY=0.5;exitDx=0;exitDy=0;entryX=0;entryY=0.5;entryDx=0;entryDy=0;" edge="1" parent="WIyWlLk6GJQsqaUBKTNV-1" source="fnlOzHqq1vUDck9NBwXH-138" target="fnlOzHqq1vUDck9NBwXH-139">
          <mxGeometry relative="1" as="geometry" />
        </mxCell>
        <mxCell id="fnlOzHqq1vUDck9NBwXH-138" value="Simpan" style="rhombus;whiteSpace=wrap;html=1;rounded=1;" vertex="1" parent="WIyWlLk6GJQsqaUBKTNV-1">
          <mxGeometry x="2040" y="450" width="80" height="80" as="geometry" />
        </mxCell>
        <mxCell id="fnlOzHqq1vUDck9NBwXH-139" value="List Update" style="whiteSpace=wrap;html=1;rounded=1;" vertex="1" parent="WIyWlLk6GJQsqaUBKTNV-1">
          <mxGeometry x="2160" y="460" width="120" height="60" as="geometry" />
        </mxCell>
      </root>
    </mxGraphModel>
  </diagram>
</mxfile>
